<svg width="18" height="22" viewBox="0 0 18 22" fill="none" xmlns="http://www.w3.org/2000/svg">
<path d="M0.4 18.6571C0.179086 18.6571 0 18.4781 0 18.2571V17.7429C0 17.5219 0.179086 17.3429 0.4 17.3429H1.97143C2.19234 17.3429 2.37143 17.1638 2.37143 16.9429V8.51429C2.37143 7.00952 2.84286 5.6381 3.78571 4.4C4.66129 3.25025 5.79558 2.51116 7.18859 2.18272C7.37627 2.13847 7.51429 1.97438 7.51429 1.78156V1.28571C7.51429 0.904762 7.64286 0.595238 7.9 0.357143C8.15714 0.119048 8.47619 0 8.85714 0C9.23809 0 9.55714 0.119048 9.81428 0.357143C10.0714 0.595238 10.2 0.904762 10.2 1.28571V1.78156C10.2 1.97438 10.338 2.13848 10.5257 2.18271C11.9194 2.51113 13.0584 3.25023 13.9429 4.4C14.8952 5.6381 15.3714 7.00952 15.3714 8.51429V16.9429C15.3714 17.1638 15.5505 17.3429 15.7714 17.3429H17.3143C17.5352 17.3429 17.7143 17.5219 17.7143 17.7429V18.2571C17.7143 18.4781 17.5352 18.6571 17.3143 18.6571H0.4ZM8.85714 22C8.30476 22 7.82381 21.8 7.41429 21.4C7.10337 21.0963 6.91048 20.7432 6.83562 20.3407C6.79522 20.1236 6.97909 19.9429 7.2 19.9429H10.5143C10.7352 19.9429 10.919 20.1235 10.8795 20.3408C10.8063 20.7433 10.6179 21.0963 10.3143 21.4C9.91428 21.8 9.42857 22 8.85714 22ZM3.65714 16.9429C3.65714 17.1638 3.83623 17.3429 4.05714 17.3429H13.6571C13.8781 17.3429 14.0571 17.1638 14.0571 16.9429V8.51429C14.0571 7.06667 13.5571 5.83333 12.5571 4.81429C11.5571 3.79524 10.3333 3.28571 8.88571 3.28571C7.43809 3.28571 6.20476 3.79524 5.18571 4.81429C4.16667 5.83333 3.65714 7.06667 3.65714 8.51429V16.9429Z" fill="#1C1C1E"/>
</svg>
