<svg width="22" height="22" viewBox="0 0 22 22" fill="none" xmlns="http://www.w3.org/2000/svg">
<path d="M21.2273 21.7171C21.0712 21.8734 20.8181 21.8736 20.6617 21.7176L12.8944 13.9689C12.7458 13.8207 12.5089 13.8135 12.3431 13.9421C11.772 14.3851 11.1271 14.7387 10.4084 15.0029C9.56638 15.3125 8.68702 15.4672 7.77035 15.4672C5.59593 15.4672 3.75727 14.7147 2.25436 13.2096C0.751453 11.7045 0 9.87385 0 7.71761C0 5.58273 0.751453 3.76274 2.25436 2.25764C3.75727 0.752547 5.58527 0 7.73837 0C9.89147 0 11.7195 0.752547 13.2224 2.25764C14.7253 3.76274 15.4767 5.58273 15.4767 7.71761C15.4767 8.61426 15.3222 9.48957 15.0131 10.3435C14.7465 11.08 14.3808 11.7529 13.9161 12.3623C13.79 12.5277 13.7992 12.7621 13.9464 12.9089L21.7167 20.6606C21.8731 20.8167 21.8734 21.07 21.7172 21.2264L21.2273 21.7171ZM7.77035 14.0262C9.49709 14.0262 10.968 13.4124 12.1831 12.1849C13.3983 10.9573 14.0058 9.46822 14.0058 7.71761C14.0058 5.96701 13.3983 4.48326 12.1831 3.26638C10.968 2.04949 9.49709 1.44105 7.77035 1.44105C6.00097 1.44105 4.50872 2.04949 3.2936 3.26638C2.07849 4.48326 1.47093 5.96701 1.47093 7.71761C1.47093 9.46822 2.07849 10.9573 3.2936 12.1849C4.50872 13.4124 6.00097 14.0262 7.77035 14.0262Z" fill="#1C1C1E"/>
</svg>
