<svg width="18" height="13" viewBox="0 0 18 13" fill="none" xmlns="http://www.w3.org/2000/svg">
<path d="M7.6 12.2143C7.37909 12.2143 7.2 12.0352 7.2 11.8143V11.4571C7.2 11.2362 7.37909 11.0571 7.6 11.0571H10.4C10.6209 11.0571 10.8 11.2362 10.8 11.4571V11.8143C10.8 12.0352 10.6209 12.2143 10.4 12.2143H7.6ZM0.4 1.15714C0.179086 1.15714 0 0.978057 0 0.757143V0.4C0 0.179086 0.179086 0 0.4 0H17.6C17.8209 0 18 0.179086 18 0.4V0.757143C18 0.978057 17.8209 1.15714 17.6 1.15714H0.4ZM3.48571 6.68571C3.2648 6.68571 3.08571 6.50663 3.08571 6.28571V5.92857C3.08571 5.70766 3.2648 5.52857 3.48571 5.52857H14.5143C14.7352 5.52857 14.9143 5.70766 14.9143 5.92857V6.28571C14.9143 6.50663 14.7352 6.68571 14.5143 6.68571H3.48571Z" fill="#1C1C1E"/>
</svg>
