<svg width="20" height="20" viewBox="0 0 20 20" fill="none" xmlns="http://www.w3.org/2000/svg">
<path d="M9.32353 15.1882C9.32353 15.4091 9.50262 15.5882 9.72353 15.5882H10.2765C10.4974 15.5882 10.6765 15.4092 10.6765 15.1882V11.0765C10.6765 10.8556 10.8556 10.6765 11.0765 10.6765H15.1882C15.4091 10.6765 15.5882 10.4974 15.5882 10.2765V9.72353C15.5882 9.50262 15.4092 9.32353 15.1882 9.32353H11.0765C10.8556 9.32353 10.6765 9.14444 10.6765 8.92353V4.81177C10.6765 4.59085 10.4974 4.41177 10.2765 4.41177H9.72353C9.50262 4.41177 9.32353 4.59085 9.32353 4.81176V8.92353C9.32353 9.14444 9.14444 9.32353 8.92353 9.32353H4.81177C4.59085 9.32353 4.41177 9.50262 4.41177 9.72353V10.2765C4.41177 10.4974 4.59085 10.6765 4.81176 10.6765H8.92353C9.14444 10.6765 9.32353 10.8556 9.32353 11.0765V15.1882ZM1.70588 20C1.23529 20 0.833333 19.8333 0.5 19.5C0.166667 19.1667 0 18.7647 0 18.2941V1.70588C0 1.23529 0.166667 0.833333 0.5 0.5C0.833333 0.166667 1.23529 0 1.70588 0H18.2941C18.7647 0 19.1667 0.166667 19.5 0.5C19.8333 0.833333 20 1.23529 20 1.70588V18.2941C20 18.7647 19.8333 19.1667 19.5 19.5C19.1667 19.8333 18.7647 20 18.2941 20H1.70588ZM1.70588 18.6765H18.2941C18.4118 18.6765 18.5049 18.6422 18.5735 18.5735C18.6422 18.5049 18.6765 18.4118 18.6765 18.2941V1.70588C18.6765 1.58824 18.6422 1.4951 18.5735 1.42647C18.5049 1.35784 18.4118 1.32353 18.2941 1.32353H1.70588C1.58824 1.32353 1.4951 1.35784 1.42647 1.42647C1.35784 1.4951 1.32353 1.58824 1.32353 1.70588V18.2941C1.32353 18.4118 1.35784 18.5049 1.42647 18.5735C1.4951 18.6422 1.58824 18.6765 1.70588 18.6765Z" fill="#48484A"/>
</svg>
