<svg width="110" height="220" viewBox="0 0 110 220" fill="none" xmlns="http://www.w3.org/2000/svg">
<path fill-rule="evenodd" clip-rule="evenodd" d="M7.651 0C7.68339 0.302353 7.7 0.609604 7.7 0.921783C7.7 5.16447 4.62196 8.60335 0.825 8.60335C0.545804 8.60335 0.270502 8.58493 0 8.54866L0 211.451C0.270502 211.415 0.545804 211.397 0.825 211.397C4.62196 211.397 7.7 214.836 7.7 219.078C7.7 219.39 7.68339 219.698 7.651 220H13.75C13.75 217.964 15.2275 216.313 17.05 216.313C18.8725 216.313 20.35 217.964 20.35 220H26.4C26.4 217.964 27.8775 216.313 29.7 216.313C31.5225 216.313 33 217.964 33 220H39.05C39.05 217.964 40.5275 216.313 42.35 216.313C44.1725 216.313 45.65 217.964 45.65 220H51.7C51.7 217.964 53.1775 216.313 55 216.313C56.8227 216.313 58.3 217.964 58.3 220H64.35C64.35 217.964 65.8273 216.313 67.65 216.313C69.4727 216.313 70.95 217.964 70.95 220H77C77 217.964 78.4773 216.313 80.3 216.313C82.1227 216.313 83.6 217.964 83.6 220H89.65C89.65 217.964 91.1273 216.313 92.95 216.313C94.7727 216.313 96.25 217.964 96.25 220H102.349C102.317 219.698 102.3 219.39 102.3 219.078C102.3 214.836 105.378 211.397 109.175 211.397C109.454 211.397 109.729 211.415 110 211.451L110 8.54866C109.729 8.58493 109.454 8.60335 109.175 8.60335C105.378 8.60335 102.3 5.16447 102.3 0.921783C102.3 0.609604 102.317 0.302353 102.349 0H96.25C96.25 2.03653 94.7727 3.68715 92.95 3.68715C91.1273 3.68715 89.65 2.03653 89.65 0H83.6C83.6 2.03653 82.1227 3.68715 80.3 3.68715C78.4773 3.68715 77 2.03653 77 0H70.95C70.95 2.03653 69.4727 3.68715 67.65 3.68715C65.8273 3.68715 64.35 2.03653 64.35 0H58.3C58.3 2.03653 56.8227 3.68715 55 3.68715C53.1775 3.68715 51.7 2.03653 51.7 0H45.65C45.65 2.03653 44.1725 3.68715 42.35 3.68715C40.5275 3.68715 39.05 2.03653 39.05 0H33C33 2.03653 31.5225 3.68715 29.7 3.68715C27.8775 3.68715 26.4 2.03653 26.4 0H20.35C20.35 2.03653 18.8725 3.68715 17.05 3.68715C15.2275 3.68715 13.75 2.03653 13.75 0H7.651Z" fill="#8E8E93" fill-opacity="0.12"/>
<path d="M41.2334 117.912H45.0854V117.12H41.2334V114.9H45.4814V114.096H40.2614V121.296H41.1134C43.1654 121.296 44.6054 121.224 46.2854 120.936L46.1894 120.132C44.5814 120.42 43.1894 120.492 41.2334 120.492V117.912ZM47.4254 113.124V123.876H48.4094V113.124H47.4254ZM59.7365 113.136H58.8005V120.432H59.7365V113.136ZM56.6765 117.072V119.472H57.6005V113.316H56.6765V116.28H55.0565C55.2845 115.584 55.3925 114.828 55.3925 114.036H51.2165V114.84H54.4205C54.3845 115.272 54.3005 115.68 54.1805 116.076L50.7125 116.304L50.8685 117.108L53.8565 116.796C53.2925 117.84 52.2845 118.716 50.7245 119.388L51.2045 120.108C52.9445 119.34 54.0725 118.32 54.7205 117.072H56.6765ZM56.6165 119.808H55.6325V120.144C55.6325 121.584 53.8685 122.772 51.9725 123.072L52.3565 123.852C53.9765 123.564 55.4645 122.724 56.1245 121.512C56.7845 122.724 58.2965 123.564 59.9045 123.852L60.3005 123.072C58.3925 122.772 56.6165 121.584 56.6165 120.144V119.808ZM66.5155 114.048C68.2795 114.048 69.2875 114.456 69.2875 115.176C69.2875 115.896 68.2795 116.304 66.5155 116.304C64.7515 116.304 63.7435 115.896 63.7435 115.176C63.7435 114.456 64.7515 114.048 66.5155 114.048ZM66.5155 117.036C68.8795 117.036 70.2955 116.388 70.2955 115.176C70.2955 113.964 68.8795 113.304 66.5155 113.304C64.1515 113.304 62.7355 113.964 62.7355 115.176C62.7355 116.388 64.1515 117.036 66.5155 117.036ZM63.8155 121.908H70.1395V119.484H62.8195V120.228H69.1675V121.188H62.8555V123.768H70.4635V123H63.8155V121.908ZM61.6435 117.768V118.56H71.3875V117.768H61.6435ZM22.649 135.812C24.317 135.56 25.865 134.732 26.549 133.568C27.233 134.732 28.769 135.56 30.437 135.812L30.785 135.02C28.865 134.756 27.041 133.568 27.041 132.248H30.473V131.456H27.041V130.124H26.057V131.456H22.625V132.248H26.045C26.045 133.58 24.233 134.756 22.289 135.02L22.649 135.812ZM31.421 136.628H21.689V137.432H26.057V140.9H27.041V137.432H31.421V136.628ZM33.2921 131.276V132.092H37.2401C37.0121 134.636 35.5361 136.7 32.7881 138.08L33.3281 138.848C36.8081 137.108 38.2121 134.336 38.2121 131.276H33.2921ZM42.7241 134.492H40.9961V130.124H40.0121V140.888H40.9961V135.308H42.7241V134.492ZM46.4191 137.576C45.5791 137.576 44.9911 136.892 44.9911 135.932C44.9911 134.996 45.5791 134.312 46.4191 134.312C47.2471 134.312 47.8471 134.996 47.8471 135.932C47.8471 136.892 47.2471 137.576 46.4191 137.576ZM46.4191 133.484C45.0871 133.484 44.1151 134.492 44.1151 135.932C44.1151 137.396 45.0871 138.392 46.4191 138.392C47.7511 138.392 48.7231 137.396 48.7231 135.932C48.7231 134.492 47.7511 133.484 46.4191 133.484ZM46.8991 130.436H45.9271V131.96H43.7431V132.764H49.0831V131.96H46.8991V130.436ZM51.9271 130.112V134.66H50.5471V130.364H49.6231V140.36H50.5471V135.464H51.9271V140.876H52.8751V130.112H51.9271ZM59.6018 133.616H65.0978V135.596H59.6018V133.616ZM62.8418 138.704V136.388H66.0578V130.892H65.0978V132.812H59.6018V130.892H58.6298V136.388H61.8458V138.704H57.4778V139.508H67.2338V138.704H62.8418ZM71.7089 131.144H70.7609V133.196C70.7609 135.044 69.8729 136.976 68.3969 137.84L69.0089 138.572C70.0769 137.912 70.8569 136.7 71.2409 135.272C71.6249 136.58 72.3449 137.72 73.3649 138.344L73.9289 137.576C72.5129 136.712 71.7089 134.888 71.7089 133.16V131.144ZM74.5409 133.988H72.7649V134.804H74.5409V140.36H75.4649V130.364H74.5409V133.988ZM76.7249 130.124V140.888H77.6609V130.124H76.7249ZM82.9279 136.16C83.3719 136.268 83.8879 136.328 84.4159 136.328C84.9559 136.328 85.4719 136.268 85.9279 136.16V138.692H82.9279V136.16ZM84.4159 131.576C86.1439 131.576 87.3919 132.368 87.3919 133.568C87.3919 134.768 86.1439 135.56 84.4159 135.56C82.6879 135.56 81.4519 134.768 81.4519 133.568C81.4519 132.368 82.6879 131.576 84.4159 131.576ZM86.9119 138.692V135.776C87.7999 135.308 88.3279 134.54 88.3279 133.568C88.3279 131.888 86.7079 130.808 84.4159 130.808C82.1359 130.808 80.5039 131.888 80.5039 133.568C80.5039 134.54 81.0439 135.32 81.9439 135.788V138.692H79.5439V139.508H89.3239V138.692H86.9119Z" fill="#48484A"/>
<path d="M54.3235 92.1882C54.3235 92.4091 54.5026 92.5882 54.7235 92.5882H55.2765C55.4974 92.5882 55.6765 92.4092 55.6765 92.1882V88.0765C55.6765 87.8556 55.8556 87.6765 56.0765 87.6765H60.1882C60.4091 87.6765 60.5882 87.4974 60.5882 87.2765V86.7235C60.5882 86.5026 60.4092 86.3235 60.1882 86.3235H56.0765C55.8556 86.3235 55.6765 86.1444 55.6765 85.9235V81.8118C55.6765 81.5909 55.4974 81.4118 55.2765 81.4118H54.7235C54.5026 81.4118 54.3235 81.5909 54.3235 81.8118V85.9235C54.3235 86.1444 54.1444 86.3235 53.9235 86.3235H49.8118C49.5909 86.3235 49.4118 86.5026 49.4118 86.7235V87.2765C49.4118 87.4974 49.5909 87.6765 49.8118 87.6765H53.9235C54.1444 87.6765 54.3235 87.8556 54.3235 88.0765V92.1882ZM46.7059 97C46.2353 97 45.8333 96.8333 45.5 96.5C45.1667 96.1667 45 95.7647 45 95.2941V78.7059C45 78.2353 45.1667 77.8333 45.5 77.5C45.8333 77.1667 46.2353 77 46.7059 77H63.2941C63.7647 77 64.1667 77.1667 64.5 77.5C64.8333 77.8333 65 78.2353 65 78.7059V95.2941C65 95.7647 64.8333 96.1667 64.5 96.5C64.1667 96.8333 63.7647 97 63.2941 97H46.7059ZM46.7059 95.6765H63.2941C63.4118 95.6765 63.5049 95.6422 63.5735 95.5735C63.6422 95.5049 63.6765 95.4118 63.6765 95.2941V78.7059C63.6765 78.5882 63.6422 78.4951 63.5735 78.4265C63.5049 78.3578 63.4118 78.3235 63.2941 78.3235H46.7059C46.5882 78.3235 46.4951 78.3578 46.4265 78.4265C46.3578 78.4951 46.3235 78.5882 46.3235 78.7059V95.2941C46.3235 95.4118 46.3578 95.5049 46.4265 95.5735C46.4951 95.6422 46.5882 95.6765 46.7059 95.6765Z" fill="#48484A"/>
</svg>
