<svg width="358" height="200" viewBox="0 0 358 200" fill="none" xmlns="http://www.w3.org/2000/svg">
<path fill-rule="evenodd" clip-rule="evenodd" d="M358 13.9109C357.508 13.9698 357.008 14 356.5 14C349.596 14 344 8.40356 344 1.5C344 0.992371 344.03 0.491821 344.089 0H13.9109C13.9698 0.491821 14 0.992371 14 1.5C14 8.40356 8.40356 14 1.5 14C0.992371 14 0.491821 13.9698 0 13.9109V25C3.31372 25 6 27.6863 6 31C6 34.3137 3.31372 37 0 37V48C3.31372 48 6 50.6863 6 54C6 57.3137 3.31372 60 0 60V71C3.31372 71 6 73.6863 6 77C6 80.3137 3.31372 83 0 83V94C3.31372 94 6 96.6863 6 100C6 103.314 3.31372 106 0 106V117C3.31372 117 6 119.686 6 123C6 126.314 3.31372 129 0 129V140C3.31372 140 6 142.686 6 146C6 149.314 3.31372 152 0 152V163C3.31372 163 6 165.686 6 169C6 172.314 3.31372 175 0 175V186.089C0.491821 186.03 0.992371 186 1.5 186C8.40356 186 14 191.596 14 198.5C14 199.008 13.9698 199.508 13.9109 200H344.089C344.03 199.508 344 199.008 344 198.5C344 191.596 349.596 186 356.5 186C357.008 186 357.508 186.03 358 186.089V175C354.686 175 352 172.314 352 169C352 165.686 354.686 163 358 163V152C354.686 152 352 149.314 352 146C352 142.686 354.686 140 358 140V129C354.686 129 352 126.314 352 123C352 119.686 354.686 117 358 117V106C354.686 106 352 103.314 352 100C352 96.6863 354.686 94 358 94V83C354.686 83 352 80.3137 352 77C352 73.6863 354.686 71 358 71V60C354.686 60 352 57.3137 352 54C352 50.6863 354.686 48 358 48V37C354.686 37 352 34.3137 352 31C352 27.6863 354.686 25 358 25V13.9109Z" fill="#8E8E93" fill-opacity="0.12"/>
<path d="M112.056 115.216H117.192V114.16H112.056V111.2H117.72V110.128H110.76V119.728H111.896C114.632 119.728 116.552 119.632 118.792 119.248L118.664 118.176C116.52 118.56 114.664 118.656 112.056 118.656V115.216ZM120.312 108.832V123.168H121.624V108.832H120.312ZM136.727 108.848H135.479V118.576H136.727V108.848ZM132.647 114.096V117.296H133.879V109.088H132.647V113.04H130.487C130.791 112.112 130.935 111.104 130.935 110.048H125.367V111.12H129.639C129.591 111.696 129.479 112.24 129.319 112.768L124.695 113.072L124.903 114.144L128.887 113.728C128.135 115.12 126.791 116.288 124.711 117.184L125.351 118.144C127.671 117.12 129.175 115.76 130.039 114.096H132.647ZM132.567 117.744H131.255V118.192C131.255 120.112 128.903 121.696 126.375 122.096L126.887 123.136C129.047 122.752 131.031 121.632 131.911 120.016C132.791 121.632 134.807 122.752 136.951 123.136L137.479 122.096C134.935 121.696 132.567 120.112 132.567 118.192V117.744ZM145.766 110.064C148.118 110.064 149.462 110.608 149.462 111.568C149.462 112.528 148.118 113.072 145.766 113.072C143.414 113.072 142.07 112.528 142.07 111.568C142.07 110.608 143.414 110.064 145.766 110.064ZM145.766 114.048C148.918 114.048 150.806 113.184 150.806 111.568C150.806 109.952 148.918 109.072 145.766 109.072C142.614 109.072 140.726 109.952 140.726 111.568C140.726 113.184 142.614 114.048 145.766 114.048ZM142.166 120.544H150.598V117.312H140.838V118.304H149.302V119.584H140.886V123.024H151.03V122H142.166V120.544ZM139.27 115.024V116.08H152.262V115.024H139.27ZM158.878 116.416C161.102 116.08 163.166 114.976 164.078 113.424C164.99 114.976 167.038 116.08 169.262 116.416L169.726 115.36C167.166 115.008 164.734 113.424 164.734 111.664H169.31V110.608H164.734V108.832H163.422V110.608H158.846V111.664H163.406C163.406 113.44 160.99 115.008 158.398 115.36L158.878 116.416ZM170.574 117.504H157.598V118.576H163.422V123.2H164.734V118.576H170.574V117.504ZM173.069 110.368V111.456H178.333C178.029 114.848 176.061 117.6 172.397 119.44L173.117 120.464C177.757 118.144 179.629 114.448 179.629 110.368H173.069ZM185.645 114.656H183.341V108.832H182.029V123.184H183.341V115.744H185.645V114.656ZM190.572 118.768C189.452 118.768 188.668 117.856 188.668 116.576C188.668 115.328 189.452 114.416 190.572 114.416C191.676 114.416 192.476 115.328 192.476 116.576C192.476 117.856 191.676 118.768 190.572 118.768ZM190.572 113.312C188.796 113.312 187.5 114.656 187.5 116.576C187.5 118.528 188.796 119.856 190.572 119.856C192.348 119.856 193.644 118.528 193.644 116.576C193.644 114.656 192.348 113.312 190.572 113.312ZM191.212 109.248H189.916V111.28H187.004V112.352H194.124V111.28H191.212V109.248ZM197.916 108.816V114.88H196.076V109.152H194.844V122.48H196.076V115.952H197.916V123.168H199.18V108.816H197.916ZM208.149 113.488H215.477V116.128H208.149V113.488ZM212.469 120.272V117.184H216.757V109.856H215.477V112.416H208.149V109.856H206.853V117.184H211.141V120.272H205.317V121.344H218.325V120.272H212.469ZM224.292 110.192H223.028V112.928C223.028 115.392 221.844 117.968 219.876 119.12L220.692 120.096C222.116 119.216 223.156 117.6 223.668 115.696C224.18 117.44 225.14 118.96 226.5 119.792L227.252 118.768C225.364 117.616 224.292 115.184 224.292 112.88V110.192ZM228.068 113.984H225.7V115.072H228.068V122.48H229.3V109.152H228.068V113.984ZM230.98 108.832V123.184H232.228V108.832H230.98ZM239.25 116.88C239.842 117.024 240.53 117.104 241.234 117.104C241.954 117.104 242.642 117.024 243.25 116.88V120.256H239.25V116.88ZM241.234 110.768C243.538 110.768 245.202 111.824 245.202 113.424C245.202 115.024 243.538 116.08 241.234 116.08C238.93 116.08 237.282 115.024 237.282 113.424C237.282 111.824 238.93 110.768 241.234 110.768ZM244.562 120.256V116.368C245.746 115.744 246.45 114.72 246.45 113.424C246.45 111.184 244.29 109.744 241.234 109.744C238.194 109.744 236.018 111.184 236.018 113.424C236.018 114.72 236.738 115.76 237.938 116.384V120.256H234.738V121.344H247.778V120.256H244.562Z" fill="#48484A"/>
<path d="M178.324 87.1882C178.324 87.4091 178.503 87.5882 178.724 87.5882H179.276C179.497 87.5882 179.676 87.4091 179.676 87.1882V83.0765C179.676 82.8556 179.856 82.6765 180.076 82.6765H184.188C184.409 82.6765 184.588 82.4974 184.588 82.2765V81.7235C184.588 81.5026 184.409 81.3235 184.188 81.3235H180.076C179.856 81.3235 179.676 81.1444 179.676 80.9235V76.8118C179.676 76.5909 179.497 76.4118 179.276 76.4118H178.724C178.503 76.4118 178.324 76.5909 178.324 76.8118V80.9235C178.324 81.1444 178.144 81.3235 177.924 81.3235H173.812C173.591 81.3235 173.412 81.5026 173.412 81.7235V82.2765C173.412 82.4974 173.591 82.6765 173.812 82.6765H177.924C178.144 82.6765 178.324 82.8556 178.324 83.0765V87.1882ZM170.706 92C170.235 92 169.833 91.8333 169.5 91.5C169.167 91.1667 169 90.7647 169 90.2941V73.7059C169 73.2353 169.167 72.8333 169.5 72.5C169.833 72.1667 170.235 72 170.706 72H187.294C187.765 72 188.167 72.1667 188.5 72.5C188.833 72.8333 189 73.2353 189 73.7059V90.2941C189 90.7647 188.833 91.1667 188.5 91.5C188.167 91.8333 187.765 92 187.294 92H170.706ZM170.706 90.6765H187.294C187.412 90.6765 187.505 90.6422 187.574 90.5735C187.642 90.5049 187.676 90.4118 187.676 90.2941V73.7059C187.676 73.5882 187.642 73.4951 187.574 73.4265C187.505 73.3578 187.412 73.3235 187.294 73.3235H170.706C170.588 73.3235 170.495 73.3578 170.426 73.4265C170.358 73.4951 170.324 73.5882 170.324 73.7059V90.2941C170.324 90.4118 170.358 90.5049 170.426 90.5735C170.495 90.6422 170.588 90.6765 170.706 90.6765Z" fill="#48484A"/>
</svg>
