<svg width="24" height="17" viewBox="0 0 24 17" fill="none" xmlns="http://www.w3.org/2000/svg">
<path d="M0.399999 16.6829C0.179085 16.6829 0 16.5038 0 16.2829V14.4585C0 13.8537 0.160975 13.3122 0.482927 12.8341C0.804878 12.3561 1.24878 11.9902 1.81463 11.7366C3.08293 11.1902 4.23902 10.7805 5.28293 10.5073C6.32683 10.2341 7.49268 10.0976 8.78049 10.0976C10.0878 10.0976 11.2585 10.2341 12.2927 10.5073C13.3268 10.7805 14.478 11.1902 15.7463 11.7366C16.3122 11.9902 16.7561 12.3561 17.078 12.8341C17.4 13.3122 17.561 13.8537 17.561 14.4585V16.2829C17.561 16.5038 17.3819 16.6829 17.161 16.6829H0.399999ZM18.4845 11.5368C18.2015 11.1969 18.5153 10.4821 18.9462 10.582C19.2402 10.6502 19.5297 10.7228 19.8146 10.8C20.7512 11.0537 21.5317 11.3463 22.1561 11.678C22.7219 11.9902 23.1707 12.3902 23.5024 12.878C23.8341 13.3659 24 13.9122 24 14.5171V16.2829C24 16.5038 23.8209 16.6829 23.6 16.6829H19.8927C19.6718 16.6829 19.4927 16.5038 19.4927 16.2829V14.5171C19.4927 13.4634 19.2488 12.5902 18.761 11.8976C18.6735 11.7734 18.5814 11.6531 18.4845 11.5368ZM8.78049 7.7561C7.66829 7.7561 6.74634 7.39024 6.01463 6.65854C5.28293 5.92683 4.91707 4.99512 4.91707 3.86342C4.91707 2.73171 5.28293 1.80488 6.01463 1.08293C6.74634 0.360975 7.66829 0 8.78049 0C9.91219 0 10.8439 0.360975 11.5756 1.08293C12.3073 1.80488 12.6732 2.73171 12.6732 3.86342C12.6732 4.99512 12.3073 5.92683 11.5756 6.65854C10.8439 7.39024 9.91219 7.7561 8.78049 7.7561ZM18.0293 3.86342C18.0293 4.99512 17.6683 5.92683 16.9463 6.65854C16.2244 7.39024 15.2976 7.7561 14.1659 7.7561C14.0293 7.7561 13.8878 7.74634 13.7415 7.72683C13.5415 7.70017 13.4689 7.46321 13.5867 7.29945C13.8665 6.91031 14.0889 6.47229 14.2537 5.98537C14.4683 5.35122 14.5756 4.6439 14.5756 3.86342C14.5756 3.10244 14.4634 2.41951 14.239 1.81463C14.0628 1.33953 13.8354 0.888497 13.5568 0.461542C13.4437 0.288158 13.5214 0.0549462 13.7268 0.0292678C13.8829 0.00975565 14.0293 0 14.1659 0C15.2976 0 16.2244 0.360975 16.9463 1.08293C17.6683 1.80488 18.0293 2.73171 18.0293 3.86342ZM1.34634 14.9659C1.34634 15.1868 1.52543 15.3659 1.74634 15.3659H15.8439C16.0648 15.3659 16.2439 15.1868 16.2439 14.9659V14.4585C16.2439 14.1463 16.1561 13.8537 15.9805 13.5805C15.8049 13.3073 15.5512 13.0927 15.2195 12.9366C13.9902 12.3707 12.9073 11.9756 11.9707 11.7512C11.0341 11.5268 9.97073 11.4146 8.78049 11.4146C7.60976 11.4146 6.5561 11.5268 5.61951 11.7512C4.68293 11.9756 3.6 12.3707 2.37073 12.9366C2.03902 13.0927 1.78537 13.3073 1.60976 13.5805C1.43415 13.8537 1.34634 14.1463 1.34634 14.4585V14.9659ZM8.78049 6.43902C9.52195 6.43902 10.1366 6.19512 10.6244 5.70732C11.1122 5.21951 11.3561 4.60488 11.3561 3.86342C11.3561 3.14146 11.1122 2.53659 10.6244 2.04878C10.1366 1.56098 9.52195 1.31707 8.78049 1.31707C8.05854 1.31707 7.45366 1.56098 6.96585 2.04878C6.47805 2.53659 6.23415 3.14146 6.23415 3.86342C6.23415 4.60488 6.47805 5.21951 6.96585 5.70732C7.45366 6.19512 8.05854 6.43902 8.78049 6.43902Z" fill="#1C1C1E"/>
</svg>
