<svg width="24" height="22" viewBox="0 0 24 22" fill="none" xmlns="http://www.w3.org/2000/svg">
<path d="M0.4 21.4737C0.179086 21.4737 0 21.2946 0 21.0737V20.4526C0 20.2317 0.179086 20.0526 0.4 20.0526H2.12632C2.34723 20.0526 2.52632 19.8735 2.52632 19.6526V0.4C2.52632 0.179087 2.7054 0 2.92632 0H21.0737C21.2946 0 21.4737 0.179086 21.4737 0.4V19.6526C21.4737 19.8735 21.6528 20.0526 21.8737 20.0526H23.6C23.8209 20.0526 24 20.2317 24 20.4526V21.0737C24 21.2946 23.8209 21.4737 23.6 21.4737H0.4ZM3.94737 20.0526H9.02997C9.26724 20.0526 9.45294 19.8472 9.41899 19.6123C9.206 18.139 8.69265 16.6699 7.87895 15.2053C6.98421 13.5947 5.67368 12.5684 3.94737 12.1263V20.0526ZM3.94737 1.42105V9.37895C5.67368 8.93684 6.98421 7.90526 7.87895 6.28421C8.69268 4.80992 9.20603 3.33563 9.41901 1.86134C9.45293 1.62652 9.26724 1.42105 9.02997 1.42105H3.94737ZM5.75158 10.253C5.39589 10.428 5.39591 11.0456 5.75171 11.2203C7.12565 11.8952 8.23472 12.9499 9.07895 14.3842C10.095 16.1105 10.7089 17.8783 10.9207 19.6878C10.9448 19.8939 11.1171 20.0526 11.3246 20.0526H12.6754C12.8829 20.0526 13.0552 19.8939 13.0792 19.6878C13.2904 17.8783 13.8991 16.1105 14.9053 14.3842C15.7412 12.9501 16.845 11.8956 18.2168 11.2207C18.5725 11.0457 18.5725 10.428 18.2168 10.253C16.845 9.57813 15.7412 8.52361 14.9053 7.08947C13.8991 5.36321 13.2904 3.59534 13.0792 1.78588C13.0552 1.5798 12.8829 1.42105 12.6754 1.42105H11.293C11.0856 1.42105 10.9132 1.5798 10.8892 1.78588C10.678 3.59535 10.0693 5.36321 9.06316 7.08947C8.22726 8.52361 7.1234 9.57813 5.75158 10.253ZM20.0526 1.42105H14.9384C14.7012 1.42105 14.5155 1.62652 14.5495 1.86133C14.7634 3.33562 15.282 4.80992 16.1053 6.28421C17.0105 7.90526 18.3263 8.93684 20.0526 9.37895V1.42105ZM20.0526 20.0526V12.0947C18.3263 12.5368 17.0105 13.5684 16.1053 15.1895C15.281 16.6654 14.7709 18.1414 14.575 19.6174C14.544 19.8505 14.7291 20.0526 14.9643 20.0526H20.0526ZM3.94737 1.42105C3.94737 3.04211 3.94737 4.66316 3.94737 6.28421C3.94737 7.90526 3.94737 8.93684 3.94737 9.37895V1.42105ZM20.0526 1.42105V9.37895C20.0526 8.93684 20.0526 7.90526 20.0526 6.28421C20.0526 4.66316 20.0526 3.04211 20.0526 1.42105ZM20.0526 20.0526C20.0526 18.4316 20.0526 16.8105 20.0526 15.1895C20.0526 13.5684 20.0526 12.5368 20.0526 12.0947V20.0526ZM3.94737 20.0526V12.1263C3.94737 12.5684 3.94737 13.5947 3.94737 15.2053C3.94737 16.8158 3.94737 18.4316 3.94737 20.0526Z" fill="#1C1C1E"/>
</svg>
