<svg width="24" height="19" viewBox="0 0 24 19" fill="none" xmlns="http://www.w3.org/2000/svg">
<path d="M1.42105 18.9474C1.04211 18.9474 0.710526 18.8053 0.426316 18.5211C0.142105 18.2368 0 17.9053 0 17.5263V13.4276C0 13.2543 0.112578 13.1026 0.273084 13.0371C0.929078 12.7692 1.47489 12.3341 1.91053 11.7316C2.40526 11.0474 2.65263 10.2947 2.65263 9.47368C2.65263 8.65263 2.40526 7.9 1.91053 7.21579C1.47489 6.61332 0.929078 6.17816 0.273084 5.91031C0.112578 5.84477 0 5.69312 0 5.51975V1.42105C0 1.04211 0.142105 0.710526 0.426316 0.426316C0.710526 0.142105 1.04211 0 1.42105 0H22.5789C22.9579 0 23.2895 0.142105 23.5737 0.426316C23.8579 0.710526 24 1.04211 24 1.42105V5.51975C24 5.69312 23.8874 5.84475 23.7269 5.91039C23.0721 6.17824 22.5316 6.61338 22.1053 7.21579C21.6211 7.9 21.3789 8.65263 21.3789 9.47368C21.3789 10.2947 21.6211 11.0474 22.1053 11.7316C22.5316 12.334 23.0721 12.7691 23.7269 13.037C23.8874 13.1026 24 13.2543 24 13.4276V17.5263C24 17.9053 23.8579 18.2368 23.5737 18.5211C23.2895 18.8053 22.9579 18.9474 22.5789 18.9474H1.42105ZM9.48819 12.712C9.36939 13.0881 9.80923 13.391 10.1183 13.1458L11.7517 11.8496C11.8972 11.7342 12.1029 11.7341 12.2485 11.8493L13.8615 13.1255C14.1698 13.3694 14.6081 13.0689 14.4918 12.6935L13.848 10.6149C13.7999 10.4595 13.8507 10.2904 13.9764 10.1873L15.7142 8.76191C16.0047 8.52366 15.8362 8.05263 15.4605 8.05263H13.4542C13.2833 8.05263 13.1312 7.94399 13.0758 7.78227L12.3784 5.74665C12.2549 5.38617 11.7451 5.38617 11.6216 5.74665L10.9242 7.78227C10.8688 7.94399 10.7167 8.05263 10.5458 8.05263H8.53946C8.16379 8.05263 7.99532 8.52366 8.28578 8.76191L10.0223 10.1863C10.1487 10.2899 10.1993 10.4601 10.1501 10.616L9.48819 12.712Z" fill="#1C1C1E"/>
</svg>
